<?xml version="1.0" encoding="UTF-8" standalone="no"?>
<!-- Created with Inkscape (http://www.inkscape.org/) -->
<svg
   xmlns:dc="http://purl.org/dc/elements/1.1/"
   xmlns:cc="http://web.resource.org/cc/"
   xmlns:rdf="http://www.w3.org/1999/02/22-rdf-syntax-ns#"
   xmlns:svg="http://www.w3.org/2000/svg"
   xmlns="http://www.w3.org/2000/svg"
   xmlns:sodipodi="http://sodipodi.sourceforge.net/DTD/sodipodi-0.dtd"
   xmlns:inkscape="http://www.inkscape.org/namespaces/inkscape"
   width="210mm"
   height="297mm"
   id="svg2241"
   sodipodi:version="0.32"
   inkscape:version="0.45"
   sodipodi:docbase="L:\Regionen in Somalia"
   sodipodi:docname="Somalia regions map Bakool.svg"
   inkscape:output_extension="org.inkscape.output.svg.inkscape"
   sodipodi:modified="true">
  <defs
     id="defs2243" />
  <sodipodi:namedview
     id="base"
     pagecolor="#ffffff"
     bordercolor="#666666"
     borderopacity="1.0"
     inkscape:pageopacity="0.0"
     inkscape:pageshadow="2"
     inkscape:zoom="0.75488405"
     inkscape:cx="177.241"
     inkscape:cy="400.12648"
     inkscape:document-units="px"
     inkscape:current-layer="g2292"
     inkscape:window-width="1152"
     inkscape:window-height="792"
     inkscape:window-x="-4"
     inkscape:window-y="-4" />
  <metadata
     id="metadata2246">
    <rdf:RDF>
      <cc:Work
         rdf:about="">
        <dc:format>image/svg+xml</dc:format>
        <dc:type
           rdf:resource="http://purl.org/dc/dcmitype/StillImage" />
      </cc:Work>
    </rdf:RDF>
  </metadata>
  <g
     inkscape:label="Ebene 1"
     inkscape:groupmode="layer"
     id="layer1">
    <g
       id="g2292"
       transform="translate(-658.6079,-11.12096)">
      <path
         style="fill:#b3b3b3;stroke:#999;stroke-width:7;stroke-miterlimit:4;stroke-dasharray:none"
         d="M 734.92625,981.89347 C 726.8607,970.9814 718.25131,959.07156 715.79429,955.42701 L 711.32694,948.80055 L 711.35498,829.39018 L 711.38302,709.97983 L 721.52522,699.83714 C 729.99693,691.36506 760.27807,649.13876 771.57524,630.04368 C 776.26071,622.12405 781.66074,619.36001 793.9925,618.56924 C 800.04143,618.18136 811.04738,616.66604 818.45016,615.20185 L 831.90976,612.5397 L 838.32884,602.25975 C 847.02084,588.33977 850.69575,585.94065 883.20189,572.96491 L 896.23711,567.76151 L 931.26922,568.18758 L 966.30142,568.61364 L 985.99862,547.57761 C 996.83202,536.00782 1031.3334,498.73147 1062.6685,464.74129 C 1094.0035,430.75112 1127.8504,394.42416 1137.884,384.01472 C 1154.8615,366.40121 1160.4075,357.72226 1153.2753,359.92882 C 1147.4883,361.71922 1098.6792,362.68244 1093.6348,361.10579 C 1059.6355,350.47945 972.34462,322.30076 970.43292,321.33463 C 969.05682,320.63913 953.75092,315.75703 936.42002,310.48551 L 904.90915,300.90094 L 892.00695,288.88463 C 884.91073,282.27566 877.70316,276.86831 875.99014,276.86831 C 874.2771,276.86831 870.43296,274.1707 867.44759,270.87363 C 864.46223,267.57655 860.7365,263.7037 859.1682,262.26733 C 857.5999,260.83095 856.31675,257.56923 856.31675,255.01907 C 856.31675,252.26455 854.82855,249.07378 852.65059,247.15859 C 836.26941,232.75394 826.23841,220.79504 820.72552,209.09773 C 817.89641,203.09486 815.58168,197.71093 815.58168,197.13342 C 815.58168,195.1271 851.94631,141.73161 853.31271,141.73161 C 854.06876,141.73161 854.68734,142.90843 854.68734,144.34677 C 854.68734,145.78512 856.88704,147.80172 859.57555,148.8281 C 862.34935,149.88704 864.46376,151.89834 864.46376,153.4779 C 864.46376,155.00893 868.31322,162.04925 873.01812,169.12308 C 879.24523,178.48555 885.78371,185.46504 897.05181,194.77778 C 919.15822,213.04803 919.73822,213.27506 940.68212,211.85609 C 956.39252,210.79168 959.09532,210.11627 968.15912,204.98965 C 973.68802,201.86238 979.10452,198.21565 980.19572,196.8858 C 981.28692,195.55595 983.77352,194.46789 985.72132,194.46789 C 987.66922,194.46789 994.55042,191.17073 1001.0128,187.14087 C 1012.5305,179.95864 1012.8741,179.86094 1018.4016,182.19685 C 1021.503,183.50749 1027.6708,184.57984 1032.1078,184.57984 C 1036.7456,184.57984 1042.2426,185.77994 1045.0385,187.40286 C 1049.6331,190.06993 1050.396,190.0683 1058.8491,187.37326 C 1066.9284,184.79739 1081.9617,175.2398 1095.0242,164.37459 C 1101.9824,158.58688 1112.9147,153.26767 1117.8519,153.26767 C 1120.1725,153.26767 1124.0512,154.26886 1126.4712,155.49252 C 1129.876,157.21419 1134.3229,157.39731 1146.1338,156.30224 C 1159.1638,155.09413 1162.2623,154.2107 1167.316,150.26287 C 1177.5067,142.30213 1189.2012,140.1127 1202.4248,143.68989 C 1209.9277,145.71951 1211.8823,145.44753 1234.3381,139.24929 C 1239.267,137.88881 1245.4995,135.12588 1248.188,133.10944 C 1251.154,130.88496 1256.921,128.93876 1262.8526,128.16052 C 1268.2297,127.45508 1274.9749,126.54622 1277.842,126.14084 C 1290.2374,124.38832 1305.3352,113.98455 1309.3995,104.39487 C 1311.0846,100.41864 1313.7659,96.756179 1315.3579,96.256069 C 1316.9498,95.755949 1319.4545,94.704199 1320.9237,93.918839 C 1322.6718,92.984489 1327.4589,93.834239 1334.7737,96.377279 C 1340.9219,98.514759 1347.9686,100.7088 1350.433,101.25291 C 1354.1521,102.07402 1354.9139,103.11433 1354.9139,107.37231 C 1354.9139,110.19387 1353.562,114.81477 1351.9094,117.64098 C 1350.2571,120.46718 1347.9379,127.05291 1346.7561,132.27597 C 1344.7437,141.17009 1344.8168,142.0063 1347.9106,145.46003 C 1350.5546,148.4117 1350.9336,150.13436 1349.8096,154.09168 C 1348.9571,157.0926 1349.1398,163.95627 1350.274,171.55555 C 1351.8902,182.38416 1351.783,184.80438 1349.481,189.47182 C 1348.017,192.43984 1347.198,195.48817 1347.6611,196.24589 C 1348.124,197.00359 1346.368,198.7401 1343.7588,200.10478 C 1337.9031,203.16749 1336.9989,205.44858 1336.9585,217.26279 C 1336.9408,222.40048 1335.9041,232.4713 1334.6547,239.6424 C 1333.171,248.15933 1332.8995,254.05457 1333.8724,256.64239 C 1335.4908,260.94756 1334.2483,264.26066 1327.7747,272.90384 C 1325.6741,275.70862 1323.9552,279.75616 1323.9552,281.89841 C 1323.9552,284.12309 1321.5193,288.31664 1318.2747,291.67737 C 1314.0237,296.08038 1311.563,301.07535 1308.4978,311.52295 C 1306.2449,319.20184 1302.9941,326.66769 1301.274,328.11373 C 1299.5536,329.55978 1297.3028,333.91094 1296.2719,337.78296 C 1294.8751,343.02943 1291.7209,347.41293 1283.8917,354.98881 C 1274.2241,364.34339 1273.4685,365.57358 1274.4238,370.40481 C 1275.2508,374.58668 1274.0823,378.38533 1268.6817,389.07307 C 1264.9526,396.453 1259.2394,406.67117 1255.986,411.78009 C 1239.7974,437.20089 1233.4563,452.05252 1232.027,467.89574 C 1231.498,473.76 1229.2685,482.45348 1227.0196,487.42183 C 1222.1687,498.13857 1205.9018,523.51402 1190.514,544.36843 C 1184.3725,552.69177 1176.975,564.3222 1174.0751,570.21384 C 1171.1753,576.10547 1167.0504,583.28663 1164.9089,586.17196 C 1162.7672,589.0573 1161.015,591.93524 1161.015,592.56737 C 1161.015,593.1995 1156.1844,599.29649 1150.2803,606.11623 C 1144.3762,612.93597 1137.6161,621.55289 1135.2579,625.26496 C 1132.8996,628.97702 1123.8488,639.57352 1115.1448,648.81277 C 1106.4411,658.05201 1096.2681,669.54686 1092.5384,674.3569 C 1075.7081,696.06213 1017.2574,748.19876 1009.7537,748.19876 C 1008.9268,748.19876 1007.2439,749.42671 1006.0139,750.92755 C 1004.784,752.42837 997.91182,756.50375 990.74242,759.98391 C 967.58312,771.22599 936.48402,792.88549 915.75122,812.21279 C 902.08781,824.94995 875.82772,848.40097 873.36931,850.06109 C 872.44223,850.68709 870.00428,853.42411 867.95163,856.14332 C 861.39155,864.83368 846.31311,881.31086 824.49078,903.63578 C 812.81161,915.58393 799.29769,930.73631 794.45983,937.30775 C 789.16367,944.50173 784.48419,949.25581 782.69927,949.25581 C 780.84992,949.25581 779.73482,950.46047 779.73482,952.45838 C 779.73482,954.21979 778.37355,956.63001 776.70977,957.81441 C 775.04599,958.9988 773.11671,961.82187 772.42248,964.0879 C 771.72826,966.35389 769.79001,970.17641 768.11522,972.58237 C 766.44046,974.98827 765.0702,977.69487 765.0702,978.59697 C 765.0702,981.01757 752.85391,1000.9137 751.09649,1001.3552 C 750.26841,1001.5632 742.99179,992.80537 734.92625,981.89347 z M 1357.4564,195.15592 C 1355.9429,193.62508 1355.3191,191.75091 1356.0703,190.99111 C 1358.1052,188.93288 1367.1344,191.86695 1367.1344,194.58646 C 1367.1344,198.01779 1360.6624,198.39861 1357.4564,195.15592 z "
         id="path2304" />
      <path
         style="fill:#cccccc;fill-opacity:1"
         d="M 733.70003,970.33207 L 716.18395,946.75782 L 716.18395,878.10402 L 716.18395,809.45021 L 758.87371,809.88958 L 801.56348,810.32893 L 809.30772,842.4651 C 813.56704,860.14 817.08681,874.78667 817.12944,875.01328 C 817.17205,875.23988 823.98931,875.43627 832.27889,875.44972 L 847.35087,875.47414 L 829.40827,893.16581 C 813.91947,908.43799 796.38476,928.17714 788.98573,938.67026 C 787.19501,941.20981 786.19151,941.43088 783.37494,939.90627 C 775.64146,935.72017 770.2541,940.25116 775.71208,946.35103 C 778.51928,949.48838 778.47564,949.58566 774.26103,949.58566 C 770.13457,949.58566 769.9661,949.90423 770.91585,955.91146 C 771.75776,961.23657 771.2453,962.96923 767.6763,966.86419 C 765.34448,969.40897 763.43663,973.19307 763.43663,975.27317 C 763.43663,977.35327 762.69292,979.52017 761.78394,980.08837 C 760.87496,980.65657 758.66038,984.03757 756.86262,987.60167 C 755.06487,991.16577 753.05896,994.04247 752.40505,993.99417 C 751.75114,993.94587 743.33387,983.29787 733.70003,970.33207 z "
         id="path2380" />
      <path
         style="fill:#cccccc;fill-opacity:1"
         d="M 821.28319,869.79624 L 805.78605,807.01668 L 749.76849,806.41902 L 761.96396,770.76959 L 808.53566,770.64818 C 808.8654,770.64732 820.88174,781.35658 826.81428,786.49741 C 836.59414,794.97212 839.00227,798.4517 852.48195,823.59673 L 867.35696,851.34462 L 859.82213,860.26493 C 852.96761,868.37986 851.67995,869.18652 845.56029,869.19956 C 841.86042,869.20743 835.08294,869.66967 830.4992,870.22672 C 825.91547,870.78379 821.76826,870.59007 821.28319,869.79624 z "
         id="path2378"
         sodipodi:nodetypes="ccccsscccssc" />
      <path
         style="fill:#cccccc;fill-opacity:1"
         d="M 869.04045,842.4051 C 867.68683,840.65636 846.0515,800.1036 844.42762,796.27135 C 844.12368,795.55404 866.85384,783.60991 894.93911,769.72886 C 923.02442,755.84778 946.90272,743.38368 948.00212,742.03084 C 949.38142,740.33356 950.13902,730.15877 950.44622,709.20569 L 950.89142,678.84025 L 960.81672,678.35639 C 967.45842,678.03261 971.32022,678.57781 972.48972,680.0044 C 973.45092,681.17692 977.23342,689.12399 980.89522,697.66454 C 987.08372,712.09824 987.55302,714.25664 987.55302,728.28533 L 987.55302,743.37784 L 980.51062,748.49301 C 975.55372,752.09348 972.90422,755.51236 971.56352,760.03852 C 970.03032,765.21437 968.11492,767.31866 961.74552,770.8249 C 951.46302,776.48525 925.95342,796.184 910.74652,810.20684 C 886.92957,832.16936 872.95297,844.4651 871.80514,844.4651 C 871.16158,844.4651 869.91748,843.5381 869.04045,842.4051 z "
         id="path2376" />
      <path
         style="fill:#cccccc;fill-opacity:1"
         d="M 717.27022,805.81422 C 716.67277,805.20997 716.18395,783.91036 716.18395,758.48177 L 716.18395,712.24798 L 725.04327,703.13615 C 733.18727,694.76001 770.28577,642.7297 775.78972,631.96471 C 779.18127,625.33128 786.0632,622.33909 797.98052,622.31638 C 803.62611,622.30561 812.27797,621.20201 817.20692,619.86392 C 822.13586,618.52585 827.06813,617.42223 828.1675,617.41147 C 829.26688,617.40071 833.11634,621.16653 836.72187,625.77995 L 843.27736,634.16798 L 843.27736,663.46013 L 843.27736,692.7523 L 835.71763,693.80032 C 831.55979,694.3767 825.46747,694.84831 822.17914,694.84831 C 811.77146,694.84831 811.37998,695.79275 806.82453,731.89094 C 802.68079,764.7266 800.69127,762.83565 803.91073,766.30173 L 758.47474,766.27474 L 744.95312,805.58819 L 717.27022,805.81422 z "
         id="path2374"
         sodipodi:nodetypes="ccccsssscccccsscccc" />
      <path
         style="fill:#cccccc;fill-opacity:1"
         d="M 833.11382,783.03219 C 829.96813,780.1109 823.20784,773.9792 818.09094,769.40618 L 808.78751,761.09161 L 812.43392,731.52512 L 816.08033,701.95862 L 822.56859,700.79447 C 826.13713,700.15417 832.39304,699.58757 836.47062,699.53532 C 840.5482,699.48309 844.76428,698.55043 845.83969,697.46274 C 847.06422,696.22423 847.79497,690.06502 847.79497,680.98266 L 847.79497,666.48018 L 895.75911,666.48018 L 943.72322,666.48018 L 944.23382,671.83621 C 944.51462,674.78202 944.53162,690.92669 944.27152,707.71324 L 943.79862,738.23424 L 892.94533,763.35741 C 864.97603,777.17515 841.35883,788.44975 840.46266,788.4121 C 839.56649,788.37444 836.25952,785.95349 833.11382,783.03219 z "
         id="path2372" />
      <path
         style="fill:#cccccc;fill-opacity:1"
         d="M 977.30602,762.50776 C 977.30602,759.75405 986.77702,748.21765 991.85302,747.40828 C 1016.3509,743.50213 1000.3179,750.99965 990.36772,755.93544 C 985.43872,758.38042 977.30602,763.24631 977.30602,762.50776 z "
         id="path2370"
         sodipodi:nodetypes="cssc" />
      <path
         style="fill:#cccccc;fill-opacity:1"
         d="M 1002.3307,742.73456 L 996.37042,742.10768 L 995.79302,726.13005 C 995.26772,711.5953 994.60592,708.77584 988.46482,694.90929 C 984.75192,686.52557 982.19472,679.38933 982.78212,679.05099 C 983.36952,678.71264 995.94842,677.92525 1010.7352,677.30125 C 1041.7124,675.99402 1042.0376,675.83271 1041.4862,662.04905 C 1041.175,654.26957 1041.7253,652.78823 1047.5292,645.77924 C 1051.0411,641.53813 1055.1036,636.55826 1056.5572,634.71284 C 1058.221,632.60059 1060.2084,631.74881 1061.9216,632.4137 C 1065.3195,633.73249 1096.7624,656.36492 1097.9918,658.37684 C 1099.1604,660.28937 1075.4383,690.45836 1070.7855,692.97694 C 1068.8333,694.03363 1060.1897,702.12034 1051.5775,710.9474 C 1038.23,724.62776 1016.1871,741.64092 1010.0875,742.97001 C 1009.0995,743.18529 1005.609,743.07935 1002.3307,742.73456 z "
         id="path2368" />
      <path
         style="fill:#cccccc;fill-opacity:1"
         d="M 964.70462,673.85918 L 952.07672,673.28556 L 952.07672,649.68072 C 952.07672,635.2879 950.80492,616.57694 948.81792,601.73584 C 947.02562,588.3488 945.55912,576.38326 945.55912,575.14573 C 945.55912,573.47036 948.32102,572.89568 956.37302,572.89568 L 967.18702,572.89568 L 977.96262,560.99347 C 1001.5499,534.94019 1002.3736,534.14372 1004.0002,535.81549 C 1004.8821,536.72189 1007.9222,543.39634 1010.7559,550.64757 C 1017.838,568.77005 1017.5323,568.51207 1030.4084,567.22881 L 1041.2426,566.14904 L 1042.2649,572.40638 C 1042.8272,575.84791 1043.2954,583.25047 1043.3053,588.85648 C 1043.3266,600.97954 1045.1969,606.75308 1049.4687,607.88296 C 1052.4622,608.67471 1054.729,614.99384 1054.729,622.54685 C 1054.729,624.24907 1049.5964,633.32204 1043.3232,642.70903 C 1033.8528,656.88026 1031.9175,660.90984 1031.9175,666.45669 L 1031.9175,673.13707 L 1009.3044,673.10558 C 996.86722,673.08826 984.58562,673.3798 982.01192,673.75345 C 979.43822,674.12708 971.64992,674.17466 964.70462,673.85918 z "
         id="path2366" />
      <path
         style="fill:#cccccc;fill-opacity:1"
         d="M 875.90217,660.67786 L 847.79497,660.1623 L 847.79497,645.93089 C 847.79497,631.87673 847.71365,631.59055 841.26437,622.95101 L 834.73378,614.20253 L 840.91382,603.98187 C 848.36448,591.65989 857.60225,585.84516 883.81169,576.97976 C 900.14897,571.45364 902.1019,571.16074 919.65852,571.60347 L 938.22682,572.07168 L 941.18172,591.84779 C 942.83332,602.90086 944.27072,622.52767 944.44052,636.34402 L 944.74442,661.06414 L 924.37692,661.12877 C 913.17472,661.16432 891.36112,660.9614 875.90217,660.67786 z "
         id="path2364" />
      <path
         style="fill:#cccccc;fill-opacity:1"
         d="M 1082.1444,638.39853 L 1061.4924,623.50257 L 1060.3586,612.79492 C 1059.3414,603.18791 1058.7426,601.83498 1054.5329,599.63321 C 1050.0404,597.28359 1049.8356,596.67257 1049.7201,585.27344 C 1049.6536,578.72527 1049.0972,570.03048 1048.4835,565.95166 L 1047.3679,558.53562 L 1035.9765,558.37644 C 1020.6166,558.16182 1021.0061,558.28076 1019.8047,553.43908 C 1019.2216,551.08919 1017.0363,545.58524 1014.9485,541.20806 C 1007.4688,525.52629 1009.4948,527.90313 1031.5123,504.09754 L 1050.9708,482.65322 L 1074.4367,481.90322 L 1100.1526,481.90322 L 1101.2042,489.73126 C 1103.1036,503.87214 1104.1047,504.90008 1116.0285,504.95285 C 1121.0185,504.97492 1121.1316,505.15267 1122.0706,514.45139 C 1122.5971,519.66322 1123.9166,537.86363 1125.0029,554.89675 C 1126.1332,572.61813 1127.7892,586.98776 1128.8739,588.48824 C 1130.2528,590.39564 1133.9609,591.20888 1142.4769,591.47164 C 1148.916,591.67029 1154.6285,592.28224 1155.1716,592.83147 C 1155.7147,593.38072 1151.5941,599.18127 1146.0147,605.7216 C 1140.4353,612.26192 1133.9768,620.63595 1131.6623,624.33055 C 1126.7534,632.16683 1106.9164,653.29649 1104.4695,653.29529 C 1103.5494,653.29484 1093.503,646.59129 1082.1444,638.39853 z "
         id="path2362"
         sodipodi:nodetypes="cccsscccsscccccsssssssssc" />
      <path
         style="fill:#cccccc;fill-opacity:1"
         d="M 602.65625 383.4375 C 602.78447 383.54185 602.903 383.6407 602.96875 383.71875 C 602.90384 383.63512 602.79978 383.55412 602.65625 383.4375 z M 588.5625 408.21875 C 587.82013 409.46021 587.10061 410.69897 586.40625 411.90625 C 587.10356 410.69569 587.81727 409.46356 588.5625 408.21875 z M 504.90625 446.59375 L 466.125 487.625 C 467.28819 488.16919 468.16474 488.80087 468.625 489.4375 C 470.4426 491.9514 472.08239 510.58976 473.5625 545.375 C 473.8234 551.50465 474.51609 560.17855 475.125 564.65625 L 476.25 572.8125 L 485.46875 573.40625 C 490.54355 573.73093 496.70304 574.10988 499.15625 574.28125 C 503.15925 574.56089 504.22795 573.37873 509.53125 562.65625 C 512.78165 556.08482 524.12513 538.37523 534.75 523.3125 C 554.0524 495.94827 565.97236 475.83992 568.96875 465.53125 C 569.84275 462.52422 570.94741 455.63235 571.4375 450.21875 C 571.5426 449.05786 571.74694 447.84139 571.96875 446.59375 L 504.90625 446.59375 z M 446.3125 465.3125 C 446.7474 465.81638 447.15798 466.4748 447.53125 467.28125 C 447.15477 466.46552 446.75251 465.8185 446.3125 465.3125 z M 448.1875 468.96875 C 448.47636 469.82796 448.73993 470.78743 448.96875 471.84375 C 448.73863 470.77801 448.47845 469.83382 448.1875 468.96875 z "
         transform="translate(658.6079,11.12096)"
         id="path2360" />
      <path
         style="fill:#ccc"
         d="M 1242.9249,377.93625 C 1223.5114,369.04588 1220.7776,368.23398 1210.1853,368.21326 C 1203.8287,368.20082 1189.714,367.70586 1178.8195,367.11336 C 1156.275,365.88733 1154.9407,364.75381 1163.8969,354.43682 C 1166.9419,350.92903 1168.6565,347.26344 1168.4475,344.70806 C 1167.9272,338.35051 1183.1338,315.55208 1188.6865,314.36437 C 1192.3611,313.57839 1208.1257,296.89381 1214.7181,286.81373 C 1215.4514,285.6926 1216.8642,285.99396 1218.7916,287.6826 C 1220.4147,289.10453 1237.8737,299.36208 1257.5895,310.47714 C 1277.3053,321.5922 1293.6731,330.89763 1293.9625,331.15586 C 1294.2519,331.41408 1293.8017,334.14184 1292.9621,337.21752 C 1292.0093,340.70702 1287.6761,346.43624 1281.4374,352.45498 C 1272.275,361.2943 1271.4394,362.68227 1271.4394,369.06424 C 1271.4394,376.11084 1267.514,388.10519 1265.3073,387.80167 C 1264.6473,387.71088 1254.5751,383.27144 1242.9249,377.93625 z "
         id="path2358" />
      <path
         style="fill:#ccc;fill-opacity:1"
         d="M 1092.2053,357.42978 C 1089.0687,356.17964 1074.4041,351.35887 1059.6172,346.717 C 1044.8304,342.0751 1027.5995,336.54171 1021.3263,334.42055 C 1015.0531,332.29938 1001.378,327.78938 990.93722,324.39835 L 971.95392,318.23283 L 970.96132,290.88746 C 970.41532,275.84751 969.66212,259.64866 969.28742,254.89004 C 968.67532,247.11568 968.93572,246.238 971.85442,246.238 C 978.05822,246.238 981.40602,243.12467 981.40602,237.35537 L 981.40602,231.88471 L 1006.2544,230.92808 L 1031.1028,229.97146 L 1039.369,235.63272 C 1043.9153,238.7464 1048.4723,241.29397 1049.4954,241.29397 C 1050.5185,241.29397 1052.0866,242.67547 1052.98,244.36396 C 1053.8734,246.05247 1056.8323,248.36724 1059.555,249.50793 C 1062.2777,250.64861 1064.5055,252.21448 1064.5055,252.98765 C 1064.5055,253.76081 1066.5738,255.4752 1069.1018,256.79739 C 1071.6299,258.11959 1076.0292,261.2702 1078.8783,263.79874 C 1083.3883,267.80143 1084.0651,269.46771 1084.1116,276.68113 C 1084.1409,281.23793 1084.8091,290.02144 1085.5964,296.20003 C 1086.9508,306.82718 1087.5198,307.95533 1096.1343,317.08979 L 1105.2405,326.74574 L 1105.2405,341.70014 C 1105.2405,349.92507 1105.4238,357.21077 1105.6479,357.89058 C 1106.364,360.06351 1098.1028,359.78031 1092.2053,357.42978 z "
         id="path2356" />
      <path
         style="fill:#ccc"
         d="M 1112.7832,352.12255 C 1112.2934,348.72353 1111.4266,340.38048 1110.8571,333.58245 C 1109.8426,321.47379 1109.6538,321.0485 1101.5773,312.67374 L 1093.3332,304.12509 L 1092.3495,287.33663 C 1091.7228,276.64505 1091.9619,270.33185 1093.0075,269.95248 C 1095.418,269.07796 1169.8351,264.23636 1179.3783,264.33319 C 1183.8592,264.37865 1191.7967,263.69279 1197.0174,262.80907 C 1202.2382,261.92536 1208.654,261.63607 1211.2747,262.1662 C 1215.5009,263.02111 1216.0397,263.81254 1216.0397,269.16574 C 1216.0397,274.29539 1214.0641,277.60407 1202.8781,291.20785 C 1192.8115,303.45038 1188.7805,307.21431 1185.7359,307.21431 C 1182.4644,307.21431 1179.7371,310.36977 1170.4241,324.9304 C 1163.8412,335.22228 1159.4353,343.76717 1159.9104,345.32074 C 1160.4214,346.99183 1158.5512,349.92826 1154.9246,353.14878 C 1149.1845,358.2462 1148.9271,358.30258 1131.3975,358.30258 L 1113.674,358.30258 L 1112.7832,352.12255 z "
         id="path2354" />
      <path
         style="fill:#ccc"
         d="M 939.85622,308.51034 C 909.27535,298.96626 906.92889,297.80642 893.20238,285.4496 C 886.36238,279.29209 879.32134,274.25414 877.55564,274.25414 C 875.75524,274.25414 870.62176,270.20782 865.86738,265.0412 L 857.38951,255.82826 L 860.22189,251.44513 C 870.42258,235.65943 880.82634,223.16588 883.77088,223.16588 C 885.56364,223.16588 889.89176,224.64228 893.3889,226.44675 C 896.88605,228.25123 900.70935,229.35426 901.88513,228.89791 C 903.06092,228.44158 906.11248,224.30853 908.66639,219.71335 C 912.92992,212.04216 913.66262,211.46599 917.62132,212.67213 C 919.99262,213.39462 929.54882,213.80343 938.85732,213.58057 C 955.18382,213.18969 956.22022,212.93869 968.18662,206.47747 C 975.00912,202.79362 981.74882,198.73784 983.16372,197.46464 C 984.57852,196.19144 987.22922,195.14973 989.05422,195.14973 C 990.87922,195.14973 994.12102,193.80799 996.25822,192.16808 C 1006.092,184.6226 1012.2982,182.0217 1016.5593,183.66026 C 1018.8498,184.54104 1022.6924,185.26148 1025.0986,185.26122 L 1029.4733,185.26076 L 1029.4733,203.98914 L 1029.4733,222.71752 L 1003.531,223.55831 C 980.71252,224.29786 977.32232,224.76751 975.37682,227.45844 C 974.01542,229.34156 973.55982,232.33561 974.19182,235.24593 C 975.10752,239.46261 974.85482,239.8573 971.85622,238.89472 C 970.00692,238.30107 967.01712,238.61469 965.21232,239.59164 C 962.09252,241.28038 961.97022,242.56437 962.73182,265.63908 C 964.31722,313.66938 964.31492,315.45863 962.66782,315.289 C 961.77172,315.19669 951.50642,312.14629 939.85622,308.51034 z "
         id="path2350" />
      <path
         style="fill:#ccc"
         d="M 1077.73,256.74192 C 1071.6585,252.51796 1059.9791,244.24158 1051.7754,238.34994 L 1036.8597,227.63789 L 1036.8327,208.27379 C 1036.8178,197.62354 1037.4263,188.90969 1038.1847,188.90969 C 1038.9432,188.90969 1041.78,190.02796 1044.4889,191.39474 C 1048.981,193.66131 1050.3282,193.59067 1059.8111,190.5914 C 1066.5018,188.47529 1073.9436,184.35809 1080.6861,179.0423 C 1086.4488,174.4989 1092.1313,170.7816 1093.3139,170.7816 C 1094.4966,170.7816 1095.4641,170.05053 1095.4641,169.15697 C 1095.4641,166.8726 1106.8986,159.47978 1113.3069,157.6209 C 1117.3556,156.44647 1119.8713,156.69933 1123.614,158.65695 C 1127.6106,160.7472 1131.5795,161.03097 1144.1955,160.12846 C 1158.0219,159.13934 1160.6355,158.43365 1166.8447,154.01311 C 1170.7052,151.26466 1178.0375,148.03174 1183.1387,146.82886 C 1191.1671,144.93568 1193.669,144.99398 1201.7574,147.2628 C 1210.2267,149.63841 1211.1721,150.36063 1211.8558,154.97666 C 1212.9201,162.16236 1216.2494,255.1672 1215.4706,255.95496 C 1215.1177,256.31192 1190.7214,258.02692 1161.2568,259.76605 C 1131.7921,261.50519 1103.4286,263.26421 1098.2268,263.67498 C 1089.1301,264.39329 1088.347,264.12839 1077.73,256.74192 z "
         id="path2348" />
      <path
         style="fill:#ccc"
         d="M 852.36845,242.45077 C 848.85492,240.34507 845.18454,237.11855 844.21207,235.28071 C 843.23959,233.44287 839.33191,229.24499 835.52833,225.95209 C 831.72475,222.65921 828.61274,219.03608 828.61274,217.90073 C 828.61274,216.76535 826.78274,212.18813 824.54606,207.72909 C 822.30937,203.27005 820.4763,199.03711 820.47255,198.32255 C 820.4688,197.608 827.31783,186.8286 835.69264,174.36833 C 844.06742,161.90808 851.34391,150.62704 851.8626,149.29939 C 852.5646,147.50256 853.15829,147.38574 854.18494,148.84238 C 854.94354,149.91868 857.56567,151.56893 860.0119,152.50962 C 862.82599,153.59175 864.45959,155.44026 864.45959,157.54249 C 864.45959,160.69677 870.33529,169.86616 880.19679,182.10139 C 882.65787,185.15485 889.83912,191.75929 896.15513,196.77794 C 902.47113,201.79657 908.28679,206.47983 909.07885,207.18518 C 910.40228,208.36376 902.87666,223.51787 900.96793,223.51787 C 900.51112,223.51787 897.30513,221.86922 893.84349,219.85422 C 888.74472,216.88621 886.67893,216.50025 882.9642,217.82156 C 880.44221,218.71862 877.62093,220.92348 876.69468,222.72124 C 875.76843,224.51899 872.67553,228.52228 869.82158,231.61742 C 866.96762,234.71256 863.77146,239.34759 862.719,241.91747 C 860.47494,247.39699 860.61003,247.39002 852.36845,242.45077 z "
         id="path2296" />
      <g
         id="g3269"
         transform="matrix(1.629403,0,0,1.648008,-593.1177,-188.7118)">
        <path
           sodipodi:nodetypes="cccssssssssssssssssssssssssc"
           id="path2352"
           d="M 1137.5694,299.26637 L 1115.3194,286.69693 L 1115.3194,282.55465 C 1115.3194,277.92425 1112.3469,207.5105 1112.0248,204.51136 C 1111.8534,202.91506 1113.1901,202.23292 1120.0956,200.39262 C 1124.6475,199.17955 1129.284,197.36155 1130.3988,196.35262 C 1131.5137,195.34368 1134.7644,194.18348 1137.6226,193.77439 C 1147.2775,192.39253 1151.8021,191.25842 1156.3501,189.08029 C 1162.9964,185.89722 1168.0668,181.35088 1168.8261,177.89382 C 1169.3173,175.65749 1170.4327,174.48272 1173.1536,173.33582 C 1176.5595,171.90022 1177.1739,171.93192 1181.8194,173.78289 C 1184.5694,174.87861 1188.2819,176.06949 1190.0694,176.42927 C 1192.7164,176.96205 1193.3194,177.55704 1193.3194,179.63594 C 1193.3194,181.03982 1192.4724,183.59157 1191.4372,185.30649 C 1189.5408,188.4481 1187.784,196.71914 1188.226,200.42452 C 1188.3573,201.52452 1189.1595,202.96256 1190.0088,203.62015 C 1191.2087,204.54927 1191.3375,205.44091 1190.5863,207.62015 C 1189.9379,209.50117 1190.0088,212.7293 1190.8015,217.42452 C 1192.0491,224.81339 1191.2209,227.98053 1189.64,230.24935 C 1188.8535,231.37813 1188.8461,232.61797 1188.8461,233.28728 C 1188.8461,233.9566 1186.479,234.22462 1185.4518,235.36007 C 1183.407,237.62039 1181.2388,252.88728 1180.9398,267.13044 C 1180.7946,274.04714 1180.4985,275.12814 1178.0487,277.68516 C 1176.4447,279.35943 1175.3194,281.65441 1175.3194,283.25158 C 1175.3194,285.00223 1173.9535,287.47347 1171.4807,290.19686 C 1168.6113,293.35696 1166.9618,296.63406 1164.9484,303.17452 C 1163.4598,308.01022 1161.71,311.90468 1161.0371,311.88017 C 1160.3674,311.85578 1149.8069,306.17957 1137.5694,299.26637 z "
           style="fill:#ccc" />
        <path
           sodipodi:nodetypes="cccc"
           id="path2382"
           d="M 1197.0072,230.88516 C 1198.1522,230.43989 1200.1137,230.57959 1202.1597,232.28459 C 1202.923,232.9207 1200.7307,233.58788 1199.2336,233.11153 C 1197.8342,232.66626 1196.2785,231.35232 1197.0072,230.88516 z "
           style="fill:#ccc;fill-rule:evenodd;stroke:none;stroke-width:1px;stroke-linecap:butt;stroke-linejoin:miter;stroke-opacity:1" />
      </g>
      <path
         style="fill:#ccc"
         d="M 496.3125 361.09375 L 479.03125 378.1875 C 470.96565 386.7752 451.70661 407.58168 433.9375 426.6875 L 399.375 463.65625 L 420.125 462.53125 C 436.1057 462.53125 443.61266 463.17614 445.65625 464.6875 C 447.50325 466.05359 448.933 470.07727 449.625 475.8125 L 450.71875 484.78125 L 458.65625 485.71875 C 461.5866 486.05911 464.24009 486.74316 466.125 487.625 L 504.90625 446.59375 L 571.96875 446.59375 C 574.04208 434.93159 581.15889 419.50666 593.3125 400.53125 C 598.6638 392.17641 603.06249 384.70666 603.0625 383.90625 C 603.0625 383.10585 594.43634 378.60806 583.90625 373.9375 L 564.75 365.4375 L 528.09375 363.65625 L 496.3125 361.09375 z "
         id="path2144"
         transform="translate(658.6079,11.12096)" />
      <path
         style="fill:none;fill-rule:evenodd;stroke:#b3b3b3;stroke-width:3;stroke-linecap:round;stroke-linejoin:miter;stroke-opacity:1;stroke-miterlimit:4;stroke-dasharray:3,6;stroke-dashoffset:0"
         d="M 464.67462,487.9895 L 504.32063,446.01137 L 572.5351,447.17743"
         id="path2146"
         transform="translate(658.6079,11.12096)"
         sodipodi:nodetypes="ccc" />
    </g>
  </g>
</svg>
